<svg height='100px' width='100px'  fill="#349AFF" xmlns="http://www.w3.org/2000/svg" xmlns:xlink="http://www.w3.org/1999/xlink" version="1.1" x="0px" y="0px" viewBox="0 0 100 100" style="enable-background:new 0 0 100 100;" xml:space="preserve"><path d="M19.3,83.3C30.6,68.7,52.8,30,62.2,5c-0.9,15.6-18.3,79.2-18.3,79.2S23.6,84.8,19.3,83.3z"></path><path d="M47,79.7c-0.1-0.4,17.3-60.5,15.5-73.4c7.5,15.1,16,52.4,8.3,70.8C61.7,80.1,52.1,81.5,47,79.7z"></path><path d="M11.5,86l3.9,7.3c2,1.7,9.9,0.7,13-0.9c2.1,3,10,5,17.1,0c2.8,3.5,10.8,1.1,15.3-2.5c3.4,4.1,10.5,4.2,13.8,2.5l3.9-9.9  l-32.2,0.1L44.9,86H11.5z"></path></svg>