<svg viewBox="0 0 94 94" fill="none" xmlns="http://www.w3.org/2000/svg" class="pz-logo"><path d="M6.42997 37.66L32.04 43.95C32.57 44.08 33.1 43.77 33.25 43.25C33.4 42.73 33.1 42.18 32.59 42.02L7.44997 34.04C6.43997 33.72 5.35997 34.3 5.06997 35.32C4.78997 36.35 5.39997 37.41 6.42997 37.66Z" fill="#00A392"></path><path d="M5.57005 59.5L32.48 51.53C33 51.38 33.31 50.84 33.17 50.32C33.04 49.8 32.51 49.47 31.98 49.59L4.64005 55.86C3.60005 56.09 2.96005 57.13 3.22005 58.16C3.48005 59.19 4.55005 59.8 5.57005 59.5Z" fill="#00A392"></path><path d="M36.64 88.47L43.42 61.31C43.55 60.78 43.24 60.25 42.72 60.1C42.2 59.95 41.65 60.25 41.49 60.76L33.02 87.44C32.7 88.45 33.28 89.53 34.3 89.82C35.33 90.12 36.38 89.5 36.64 88.47Z" fill="#00A392"></path><path d="M58.3701 86.21L51.0101 60.89C50.8601 60.37 50.3201 60.06 49.8001 60.2C49.2801 60.33 48.9501 60.86 49.0701 61.39L54.7301 87.15C54.9601 88.19 56.0001 88.83 57.0301 88.57C58.0601 88.29 58.6601 87.23 58.3701 86.21Z" fill="#00A392"></path><path d="M16.43 18.91L35.47 37.16C35.86 37.53 36.48 37.53 36.87 37.15C37.26 36.77 37.28 36.15 36.91 35.75L19.12 16.29C18.4 15.51 17.18 15.47 16.42 16.21C15.66 16.95 15.67 18.18 16.43 18.91Z" fill="#00A392"></path><path d="M76.4 74.97L57.36 56.72C56.97 56.35 56.35 56.35 55.96 56.73C55.57 57.11 55.55 57.73 55.92 58.13L73.71 77.6C74.43 78.38 75.65 78.42 76.41 77.68C77.17 76.93 77.17 75.71 76.4 74.97Z" fill="#00A392"></path><path d="M34.4599 7.67991L41.8199 32.9999C41.9699 33.5199 42.5099 33.8299 43.0299 33.6899C43.5499 33.5599 43.8799 33.0299 43.7599 32.4999L38.1099 6.74991C37.8799 5.70991 36.8399 5.06991 35.8099 5.32991C34.7699 5.58991 34.1699 6.65991 34.4599 7.67991Z" fill="#00B0A3"></path><path d="M86.4 56.22L60.79 49.93C60.26 49.8 59.73 50.11 59.58 50.63C59.43 51.15 59.73 51.7 60.24 51.86L85.3799 59.83C86.3899 60.15 87.47 59.57 87.76 58.55C88.05 57.53 87.43 56.48 86.4 56.22Z" fill="#00B0A3"></path><path d="M10.1999 27.6299L33.3099 40.3299C33.7799 40.5899 34.3799 40.4299 34.6599 39.9599C34.9399 39.4899 34.7899 38.8899 34.3399 38.5999L12.1199 24.3999C11.2199 23.8299 10.0299 24.1099 9.48992 25.0199C8.94992 25.9299 9.26992 27.1099 10.1999 27.6299Z" fill="#00A392"></path><path d="M5.39006 48.32L31.7601 47.76C32.3001 47.75 32.7401 47.31 32.7401 46.77C32.7501 46.23 32.3201 45.78 31.7801 45.75L5.44006 44.55C4.38006 44.5 3.49006 45.34 3.47006 46.41C3.46006 47.48 4.33006 48.35 5.39006 48.32Z" fill="#00A392"></path><path d="M5.84996 71.8299L34.13 54.9899C34.59 54.7099 34.75 54.1099 34.49 53.6399C34.22 53.1699 33.63 52.9899 33.15 53.2399L4.01996 68.5499C3.07996 69.0399 2.72996 70.2099 3.24996 71.1399C3.75996 72.0699 4.94996 72.3799 5.84996 71.8299Z" fill="#00A392"></path><path d="M24.0099 88.4599L39.7999 60.0499C40.0599 59.5799 39.8999 58.9799 39.4299 58.6999C38.9599 58.4199 38.3599 58.5699 38.0699 59.0199L20.7699 86.5399C20.1999 87.4399 20.4799 88.6299 21.3899 89.1699C22.3199 89.7099 23.4999 89.3899 24.0099 88.4599Z" fill="#00A392"></path><path d="M47.8 87.9599L47.24 61.5999C47.23 61.0599 46.79 60.6199 46.25 60.6199C45.71 60.6099 45.26 61.0399 45.23 61.5799L44.03 87.9199C43.98 88.9799 44.82 89.8699 45.89 89.8899C46.96 89.8899 47.82 89.0199 47.8 87.9599Z" fill="#00A392"></path><path d="M68.1199 81.77L54.4599 59.22C54.1799 58.76 53.5799 58.6 53.1099 58.86C52.6399 59.13 52.4599 59.72 52.7099 60.2L64.8499 83.61C65.3399 84.55 66.5099 84.9 67.4399 84.38C68.3599 83.87 68.6699 82.68 68.1199 81.77Z" fill="#00A392"></path><path d="M24.9399 11.86L38.4099 34.53C38.6899 35 39.2799 35.16 39.7599 34.9C40.2299 34.64 40.4199 34.05 40.1699 33.57L28.2299 10.05C27.7499 9.10002 26.5799 8.74001 25.6499 9.25001C24.7199 9.77001 24.3999 10.95 24.9399 11.86Z" fill="#00A392"></path><path d="M82.4099 66.4899L59.4099 53.5899C58.9399 53.3299 58.3399 53.4799 58.0599 53.9499C57.7799 54.4099 57.9199 55.0199 58.3699 55.3099L80.4699 69.6999C81.3599 70.2799 82.5499 70.0099 83.0999 69.0999C83.6499 68.1999 83.3299 67.0099 82.4099 66.4899Z" fill="#00A392"></path><path d="M45.0299 5.91996L45.5899 32.29C45.5999 32.83 46.0399 33.27 46.5799 33.27C47.1199 33.28 47.5699 32.85 47.5999 32.31L48.7999 5.96996C48.8399 4.89996 47.9999 4.00996 46.9399 3.99996C45.8699 3.98996 45.0099 4.85996 45.0299 5.91996Z" fill="#0FB3A8"></path><path d="M87.44 45.5599L61.07 46.1199C60.53 46.1299 60.09 46.5699 60.09 47.1099C60.08 47.6499 60.51 48.0999 61.05 48.1299L87.39 49.3299C88.45 49.3799 89.34 48.5399 89.36 47.4699C89.37 46.3999 88.5 45.5399 87.44 45.5599Z" fill="#0FB3A8"></path><path d="M82.5701 9.50991C83.3101 8.73991 84.5301 8.73991 85.2701 9.49991C86.01 10.2599 85.9801 11.4799 85.1901 12.1999L57.5701 37.4499C57.1701 37.8199 56.5501 37.7999 56.1701 37.4099C55.7901 37.0199 55.7901 36.3999 56.1601 36.0099L82.5701 9.50991Z" fill="#60BFB7"></path><path d="M87.2401 34.3999L60.3301 42.3699C59.8101 42.5199 59.5001 43.0599 59.6401 43.5799C59.7701 44.0999 60.3001 44.4299 60.8301 44.3099L88.1701 38.0299C89.2101 37.7999 89.8501 36.7599 89.5901 35.7299C89.3201 34.7099 88.2601 34.0999 87.2401 34.3999Z" fill="#F7F8FA"></path><path d="M56.1699 5.43002L49.3899 32.59C49.2599 33.12 49.5699 33.65 50.0899 33.8C50.6099 33.95 51.1599 33.65 51.3199 33.14L59.7899 6.46002C60.1099 5.45002 59.5299 4.37002 58.5099 4.08002C57.4799 3.78002 56.4199 4.40002 56.1699 5.43002Z" fill="#F7F8FA"></path><path d="M5.57005 59.5L32.48 51.53C33 51.38 33.31 50.84 33.17 50.32C33.04 49.8 32.51 49.47 31.98 49.59L4.64005 55.86C3.60005 56.09 2.96005 57.13 3.22005 58.16C3.48005 59.19 4.55005 59.8 5.57005 59.5Z" fill="#00A392"></path><path d="M36.64 88.47L43.42 61.31C43.55 60.78 43.24 60.25 42.72 60.1C42.2 59.95 41.65 60.25 41.49 60.76L33.02 87.44C32.7 88.45 33.28 89.53 34.3 89.82C35.33 90.12 36.38 89.5 36.64 88.47Z" fill="#00A392"></path><path d="M5.84996 71.8299L34.13 54.9899C34.59 54.7099 34.75 54.1099 34.49 53.6399C34.22 53.1699 33.63 52.9899 33.15 53.2399L4.01996 68.5499C3.07996 69.0399 2.72996 70.2099 3.24996 71.1399C3.75996 72.0699 4.94996 72.3799 5.84996 71.8299Z" fill="#00A392"></path><path d="M24.0099 88.4599L39.7999 60.0499C40.0599 59.5799 39.8999 58.9799 39.4299 58.6999C38.9599 58.4199 38.3599 58.5699 38.0699 59.0199L20.7699 86.5399C20.1999 87.4399 20.4799 88.6299 21.3899 89.1699C22.3199 89.7099 23.4999 89.3899 24.0099 88.4599Z" fill="#00A392"></path><path d="M87.2401 34.3999L60.3301 42.3699C59.8101 42.5199 59.5001 43.0599 59.6401 43.5799C59.7701 44.0999 60.3001 44.4299 60.8301 44.3099L88.1701 38.0299C89.2101 37.7999 89.8501 36.7599 89.5901 35.7299C89.3201 34.7099 88.2601 34.0999 87.2401 34.3999Z" fill="#38B7AD"></path><path d="M56.1699 5.43002L49.3899 32.59C49.2599 33.12 49.5699 33.65 50.0899 33.8C50.6099 33.95 51.1599 33.65 51.3199 33.14L59.7899 6.46002C60.1099 5.45002 59.5299 4.37002 58.5099 4.08002C57.4799 3.78002 56.4199 4.40002 56.1699 5.43002Z" fill="#38B7AD"></path><path d="M86.9501 22.07L58.6701 38.92C58.2101 39.2 58.0501 39.8 58.3101 40.27C58.5801 40.74 59.1701 40.92 59.6501 40.67L88.7901 25.35C89.7301 24.86 90.0801 23.69 89.5601 22.76C89.0401 21.83 87.8601 21.52 86.9501 22.07Z" fill="#4EBBB2"></path><path d="M68.7899 5.43997L52.9999 33.86C52.7399 34.33 52.8999 34.93 53.3699 35.21C53.8399 35.49 54.4399 35.34 54.7299 34.89L72.0299 7.36997C72.5999 6.46997 72.3199 5.27997 71.4099 4.73997C70.4899 4.18997 69.3099 4.50997 68.7899 5.43997Z" fill="#4EBBB2"></path><path d="M10.4299 84.23L36.6399 57.89C37.0099 57.5 37.0099 56.88 36.6299 56.49C36.2499 56.1 35.6299 56.08 35.2299 56.45L7.79985 81.54C7.01985 82.26 6.97985 83.48 7.71985 84.24C8.46985 85 9.68985 85 10.4299 84.23Z" fill="#00A392"></path></svg>